<?xml version="1.0" ?><!DOCTYPE svg  PUBLIC '-//W3C//DTD SVG 1.1//EN'  'http://www.w3.org/Graphics/SVG/1.1/DTD/svg11.dtd'>
              <svg id="sw-js-blob-svg" viewBox="0 0 100 100" xmlns="http://www.w3.org/2000/svg" version="1.1">
                    <defs> 
                        <linearGradient id="sw-gradient" x1="0" x2="1" y1="1" y2="0">
                            <stop id="stop1" stop-color="rgba(255, 255, 255, 1)" offset="0%"></stop>
                            <stop id="stop2" stop-color="rgba(255, 255, 255, 1)" offset="100%"></stop>
                        </linearGradient>
                    </defs>
                <path fill="url(#sw-gradient)" d="M6.8,-10.3C11.9,-8.8,21.4,-13.3,23,-12.6C24.5,-11.9,18.2,-5.9,14.4,-2.2C10.6,1.5,9.3,3.1,9.5,6.9C9.8,10.7,11.5,16.8,10.1,18.1C8.8,19.4,4.4,16,-1.3,18.2C-7,20.4,-13.9,28.3,-18.7,29C-23.5,29.7,-26.1,23.1,-26.5,17.1C-26.9,11,-25.2,5.5,-27.4,-1.3C-29.5,-8,-35.6,-16,-34.8,-21.4C-34,-26.8,-26.3,-29.5,-19.4,-30C-12.4,-30.4,-6.2,-28.5,-2.7,-23.8C0.8,-19.2,1.6,-11.7,6.8,-10.3Z" width="100%" height="100%" transform="translate(50 50)" stroke-width="0" style="transition: all 0.3s ease 0s;"></path>
              </svg>